<?xml version="1.0" encoding="UTF-8"?>
<svg width="100" height="100" viewBox="0 0 100 100" xmlns="http://www.w3.org/2000/svg">
  <defs>
    <linearGradient id="shipGradient" x1="0%" y1="0%" x2="0%" y2="100%">
      <stop offset="0%" style="stop-color:#FFD700;stop-opacity:1" />
      <stop offset="50%" style="stop-color:#FFA500;stop-opacity:1" />
      <stop offset="100%" style="stop-color:#FF6B35;stop-opacity:1" />
    </linearGradient>
    <filter id="glow">
      <feGaussianBlur stdDeviation="2" result="coloredBlur"/>
      <feMerge>
        <feMergeNode in="coloredBlur"/>
        <feMergeNode in="SourceGraphic"/>
      </feMerge>
    </filter>
  </defs>
  
  <!-- Imperial Aquila Ship Design -->
  <!-- Main hull -->
  <path d="M 50 10 L 35 40 L 35 70 L 50 85 L 65 70 L 65 40 Z" 
        fill="url(#shipGradient)" 
        stroke="#8B4513" 
        stroke-width="1"
        filter="url(#glow)"/>
  
  <!-- Wings -->
  <path d="M 35 40 L 15 45 L 10 55 L 15 65 L 35 70 M 65 40 L 85 45 L 90 55 L 85 65 L 65 70" 
        fill="none" 
        stroke="#FFD700" 
        stroke-width="2"
        stroke-linecap="round"/>
  
  <!-- Wing details -->
  <path d="M 20 50 L 30 50 M 20 55 L 30 55 M 20 60 L 30 60" 
        stroke="#FFA500" 
        stroke-width="1"/>
  <path d="M 70 50 L 80 50 M 70 55 L 80 55 M 70 60 L 80 60" 
        stroke="#FFA500" 
        stroke-width="1"/>
  
  <!-- Cathedral spire -->
  <path d="M 50 10 L 45 20 L 50 15 L 55 20 Z" 
        fill="#FFD700" 
        stroke="#8B4513" 
        stroke-width="0.5"/>
  
  <!-- Engine glow -->
  <circle cx="42" cy="75" r="3" fill="#00FFFF" opacity="0.8"/>
  <circle cx="50" cy="78" r="4" fill="#00FFFF" opacity="0.8"/>
  <circle cx="58" cy="75" r="3" fill="#00FFFF" opacity="0.8"/>
  
  <!-- Imperial Aquila symbol -->
  <path d="M 50 30 L 47 35 L 44 33 L 44 37 L 47 35 L 50 40 L 53 35 L 56 37 L 56 33 L 53 35 Z" 
        fill="#8B4513" 
        stroke="#FFD700" 
        stroke-width="0.5"/>
</svg>