<?xml version="1.0" encoding="UTF-8"?>
<svg width="1920" height="1080" xmlns="http://www.w3.org/2000/svg">
  <defs>
    <radialGradient id="nebula1" cx="30%" cy="30%">
      <stop offset="0%" style="stop-color:#4a0080;stop-opacity:0.3"/>
      <stop offset="100%" style="stop-color:#000000;stop-opacity:0"/>
    </radialGradient>
    <radialGradient id="nebula2" cx="70%" cy="60%">
      <stop offset="0%" style="stop-color:#003366;stop-opacity:0.2"/>
      <stop offset="100%" style="stop-color:#000000;stop-opacity:0"/>
    </radialGradient>
    <radialGradient id="nebula3" cx="50%" cy="80%">
      <stop offset="0%" style="stop-color:#660033;stop-opacity:0.25"/>
      <stop offset="100%" style="stop-color:#000000;stop-opacity:0"/>
    </radialGradient>
  </defs>
  
  <!-- Deep space background -->
  <rect width="100%" height="100%" fill="#000814"/>
  
  <!-- Nebulas -->
  <ellipse cx="400" cy="300" rx="600" ry="400" fill="url(#nebula1)"/>
  <ellipse cx="1400" cy="700" rx="500" ry="350" fill="url(#nebula2)"/>
  <ellipse cx="900" cy="900" rx="450" ry="300" fill="url(#nebula3)"/>
  
  <!-- Stars -->
  <circle cx="100" cy="100" r="1" fill="white" opacity="0.8"/>
  <circle cx="300" cy="150" r="0.5" fill="white" opacity="0.6"/>
  <circle cx="500" cy="200" r="1.5" fill="white" opacity="0.9"/>
  <circle cx="700" cy="250" r="0.8" fill="white" opacity="0.7"/>
  <circle cx="900" cy="120" r="1" fill="white" opacity="0.8"/>
  <circle cx="1100" cy="180" r="0.6" fill="white" opacity="0.5"/>
  <circle cx="1300" cy="140" r="1.2" fill="white" opacity="0.9"/>
  <circle cx="1500" cy="220" r="0.8" fill="white" opacity="0.7"/>
  <circle cx="1700" cy="160" r="1" fill="white" opacity="0.8"/>
  <circle cx="200" cy="400" r="0.7" fill="white" opacity="0.6"/>
  <circle cx="400" cy="500" r="1" fill="white" opacity="0.8"/>
  <circle cx="600" cy="450" r="0.5" fill="white" opacity="0.5"/>
  <circle cx="800" cy="550" r="1.3" fill="white" opacity="0.9"/>
  <circle cx="1000" cy="480" r="0.9" fill="white" opacity="0.7"/>
  <circle cx="1200" cy="520" r="1" fill="white" opacity="0.8"/>
  <circle cx="1400" cy="460" r="0.6" fill="white" opacity="0.6"/>
  <circle cx="1600" cy="500" r="1.1" fill="white" opacity="0.8"/>
  <circle cx="1800" cy="480" r="0.8" fill="white" opacity="0.7"/>
  <circle cx="150" cy="700" r="1" fill="white" opacity="0.8"/>
  <circle cx="350" cy="800" r="0.7" fill="white" opacity="0.6"/>
  <circle cx="550" cy="750" r="1.2" fill="white" opacity="0.9"/>
  <circle cx="750" cy="850" r="0.5" fill="white" opacity="0.5"/>
  <circle cx="950" cy="780" r="1" fill="white" opacity="0.8"/>
  <circle cx="1150" cy="820" r="0.8" fill="white" opacity="0.7"/>
  <circle cx="1350" cy="760" r="1.1" fill="white" opacity="0.9"/>
  <circle cx="1550" cy="800" r="0.6" fill="white" opacity="0.6"/>
  <circle cx="1750" cy="780" r="0.9" fill="white" opacity="0.8"/>
</svg>